<svg width="43" height="7625" viewBox="0 0 43 7625" fill="none" xmlns="http://www.w3.org/2000/svg">
<rect y="6671" width="43" height="953" fill="#5976FA"/>
<path d="M22.2422 6700.9L22.2422 6717.48" stroke="#2B4CE3" stroke-width="3" stroke-linecap="round"/>
<path d="M22.2422 6748.57L22.2422 6765.14" stroke="#2B4CE3" stroke-width="3" stroke-linecap="round"/>
<path d="M22.2422 6796.23L22.2422 6812.81" stroke="#2B4CE3" stroke-width="3" stroke-linecap="round"/>
<path d="M22.2422 6843.89L22.2422 6860.47" stroke="#2B4CE3" stroke-width="3" stroke-linecap="round"/>
<path d="M22.2422 6891.55L22.2422 6908.13" stroke="#2B4CE3" stroke-width="3" stroke-linecap="round"/>
<path d="M22.2422 6939.22L22.2422 6955.8" stroke="#2B4CE3" stroke-width="3" stroke-linecap="round"/>
<path d="M22.2422 6986.88L22.2422 7003.46" stroke="#2B4CE3" stroke-width="3" stroke-linecap="round"/>
<path d="M22.2422 7034.54L22.2422 7051.12" stroke="#2B4CE3" stroke-width="3" stroke-linecap="round"/>
<path d="M22.2422 7082.2L22.2422 7098.78" stroke="#2B4CE3" stroke-width="3" stroke-linecap="round"/>
<path d="M22.2422 7129.87L22.2422 7146.45" stroke="#2B4CE3" stroke-width="3" stroke-linecap="round"/>
<path d="M22.2422 7177.53L22.2422 7194.11" stroke="#2B4CE3" stroke-width="3" stroke-linecap="round"/>
<path d="M22.2422 7225.19L22.2422 7241.77" stroke="#2B4CE3" stroke-width="3" stroke-linecap="round"/>
<path d="M22.2422 7272.86L22.2422 7289.43" stroke="#2B4CE3" stroke-width="3" stroke-linecap="round"/>
<path d="M22.2422 7320.52L22.2422 7337.1" stroke="#2B4CE3" stroke-width="3" stroke-linecap="round"/>
<path d="M22.2422 7368.18L22.2422 7384.76" stroke="#2B4CE3" stroke-width="3" stroke-linecap="round"/>
<path d="M22.2422 7415.84L22.2422 7432.42" stroke="#2B4CE3" stroke-width="3" stroke-linecap="round"/>
<path d="M22.2422 7463.51L22.2422 7480.09" stroke="#2B4CE3" stroke-width="3" stroke-linecap="round"/>
<path d="M22.2422 7511.17L22.2422 7527.75" stroke="#2B4CE3" stroke-width="3" stroke-linecap="round"/>
<path d="M22.2422 7558.83L22.2422 7575.41" stroke="#2B4CE3" stroke-width="3" stroke-linecap="round"/>
<path d="M22.2422 7606.49L22.2422 7623.07" stroke="#2B4CE3" stroke-width="3" stroke-linecap="round"/>
<rect y="5718" width="43" height="953" fill="#5976FA"/>
<path d="M22.2422 6653.49L22.2422 6670.07" stroke="#2B4CE3" stroke-width="3" stroke-linecap="round"/>
<path d="M22.2422 5747.9L22.2422 5764.48" stroke="#2B4CE3" stroke-width="3" stroke-linecap="round"/>
<path d="M22.2422 5795.57L22.2422 5812.14" stroke="#2B4CE3" stroke-width="3" stroke-linecap="round"/>
<path d="M22.2422 5843.23L22.2422 5859.81" stroke="#2B4CE3" stroke-width="3" stroke-linecap="round"/>
<path d="M22.2422 5890.89L22.2422 5907.47" stroke="#2B4CE3" stroke-width="3" stroke-linecap="round"/>
<path d="M22.2422 5938.55L22.2422 5955.13" stroke="#2B4CE3" stroke-width="3" stroke-linecap="round"/>
<path d="M22.2422 5986.22L22.2422 6002.8" stroke="#2B4CE3" stroke-width="3" stroke-linecap="round"/>
<path d="M22.2422 6033.88L22.2422 6050.46" stroke="#2B4CE3" stroke-width="3" stroke-linecap="round"/>
<path d="M22.2422 6081.54L22.2422 6098.12" stroke="#2B4CE3" stroke-width="3" stroke-linecap="round"/>
<path d="M22.2422 6129.2L22.2422 6145.78" stroke="#2B4CE3" stroke-width="3" stroke-linecap="round"/>
<path d="M22.2422 6176.87L22.2422 6193.45" stroke="#2B4CE3" stroke-width="3" stroke-linecap="round"/>
<path d="M22.2422 6224.53L22.2422 6241.11" stroke="#2B4CE3" stroke-width="3" stroke-linecap="round"/>
<path d="M22.2422 6272.19L22.2422 6288.77" stroke="#2B4CE3" stroke-width="3" stroke-linecap="round"/>
<path d="M22.2422 6319.86L22.2422 6336.43" stroke="#2B4CE3" stroke-width="3" stroke-linecap="round"/>
<path d="M22.2422 6367.52L22.2422 6384.1" stroke="#2B4CE3" stroke-width="3" stroke-linecap="round"/>
<path d="M22.2422 6415.18L22.2422 6431.76" stroke="#2B4CE3" stroke-width="3" stroke-linecap="round"/>
<path d="M22.2422 6462.84L22.2422 6479.42" stroke="#2B4CE3" stroke-width="3" stroke-linecap="round"/>
<path d="M22.2422 6510.51L22.2422 6527.09" stroke="#2B4CE3" stroke-width="3" stroke-linecap="round"/>
<path d="M22.2422 6558.17L22.2422 6574.75" stroke="#2B4CE3" stroke-width="3" stroke-linecap="round"/>
<path d="M22.2422 6605.83L22.2422 6622.41" stroke="#2B4CE3" stroke-width="3" stroke-linecap="round"/>
<rect y="4765" width="43" height="953" fill="#5976FA"/>
<path d="M22.2422 4794.9L22.2422 4811.48" stroke="#2B4CE3" stroke-width="3" stroke-linecap="round"/>
<path d="M22.2422 4842.57L22.2422 4859.14" stroke="#2B4CE3" stroke-width="3" stroke-linecap="round"/>
<path d="M22.2422 4890.23L22.2422 4906.81" stroke="#2B4CE3" stroke-width="3" stroke-linecap="round"/>
<path d="M22.2422 4937.89L22.2422 4954.47" stroke="#2B4CE3" stroke-width="3" stroke-linecap="round"/>
<path d="M22.2422 4985.55L22.2422 5002.13" stroke="#2B4CE3" stroke-width="3" stroke-linecap="round"/>
<path d="M22.2422 5033.22L22.2422 5049.8" stroke="#2B4CE3" stroke-width="3" stroke-linecap="round"/>
<path d="M22.2422 5080.88L22.2422 5097.46" stroke="#2B4CE3" stroke-width="3" stroke-linecap="round"/>
<path d="M22.2422 5128.54L22.2422 5145.12" stroke="#2B4CE3" stroke-width="3" stroke-linecap="round"/>
<path d="M22.2422 5176.2L22.2422 5192.78" stroke="#2B4CE3" stroke-width="3" stroke-linecap="round"/>
<path d="M22.2422 5223.87L22.2422 5240.45" stroke="#2B4CE3" stroke-width="3" stroke-linecap="round"/>
<path d="M22.2422 5271.53L22.2422 5288.11" stroke="#2B4CE3" stroke-width="3" stroke-linecap="round"/>
<path d="M22.2422 5319.19L22.2422 5335.77" stroke="#2B4CE3" stroke-width="3" stroke-linecap="round"/>
<path d="M22.2422 5366.86L22.2422 5383.43" stroke="#2B4CE3" stroke-width="3" stroke-linecap="round"/>
<path d="M22.2422 5414.52L22.2422 5431.1" stroke="#2B4CE3" stroke-width="3" stroke-linecap="round"/>
<path d="M22.2422 5462.18L22.2422 5478.76" stroke="#2B4CE3" stroke-width="3" stroke-linecap="round"/>
<path d="M22.2422 5509.84L22.2422 5526.42" stroke="#2B4CE3" stroke-width="3" stroke-linecap="round"/>
<path d="M22.2422 5557.51L22.2422 5574.09" stroke="#2B4CE3" stroke-width="3" stroke-linecap="round"/>
<path d="M22.2422 5605.17L22.2422 5621.75" stroke="#2B4CE3" stroke-width="3" stroke-linecap="round"/>
<path d="M22.2422 5652.83L22.2422 5669.41" stroke="#2B4CE3" stroke-width="3" stroke-linecap="round"/>
<path d="M22.2422 5700.49L22.2422 5717.07" stroke="#2B4CE3" stroke-width="3" stroke-linecap="round"/>
<rect y="3812" width="43" height="953" fill="#5976FA"/>
<path d="M22.2422 4747.49L22.2422 4764.07" stroke="#2B4CE3" stroke-width="3" stroke-linecap="round"/>
<path d="M22.2422 3841.9L22.2422 3858.48" stroke="#2B4CE3" stroke-width="3" stroke-linecap="round"/>
<path d="M22.2422 3889.57L22.2422 3906.14" stroke="#2B4CE3" stroke-width="3" stroke-linecap="round"/>
<path d="M22.2422 3937.23L22.2422 3953.81" stroke="#2B4CE3" stroke-width="3" stroke-linecap="round"/>
<path d="M22.2422 3984.89L22.2422 4001.47" stroke="#2B4CE3" stroke-width="3" stroke-linecap="round"/>
<path d="M22.2422 4032.55L22.2422 4049.13" stroke="#2B4CE3" stroke-width="3" stroke-linecap="round"/>
<path d="M22.2422 4080.22L22.2422 4096.8" stroke="#2B4CE3" stroke-width="3" stroke-linecap="round"/>
<path d="M22.2422 4127.88L22.2422 4144.46" stroke="#2B4CE3" stroke-width="3" stroke-linecap="round"/>
<path d="M22.2422 4175.54L22.2422 4192.12" stroke="#2B4CE3" stroke-width="3" stroke-linecap="round"/>
<path d="M22.2422 4223.2L22.2422 4239.78" stroke="#2B4CE3" stroke-width="3" stroke-linecap="round"/>
<path d="M22.2422 4270.87L22.2422 4287.45" stroke="#2B4CE3" stroke-width="3" stroke-linecap="round"/>
<path d="M22.2422 4318.53L22.2422 4335.11" stroke="#2B4CE3" stroke-width="3" stroke-linecap="round"/>
<path d="M22.2422 4366.19L22.2422 4382.77" stroke="#2B4CE3" stroke-width="3" stroke-linecap="round"/>
<path d="M22.2422 4413.86L22.2422 4430.43" stroke="#2B4CE3" stroke-width="3" stroke-linecap="round"/>
<path d="M22.2422 4461.52L22.2422 4478.1" stroke="#2B4CE3" stroke-width="3" stroke-linecap="round"/>
<path d="M22.2422 4509.18L22.2422 4525.76" stroke="#2B4CE3" stroke-width="3" stroke-linecap="round"/>
<path d="M22.2422 4556.84L22.2422 4573.42" stroke="#2B4CE3" stroke-width="3" stroke-linecap="round"/>
<path d="M22.2422 4604.51L22.2422 4621.09" stroke="#2B4CE3" stroke-width="3" stroke-linecap="round"/>
<path d="M22.2422 4652.17L22.2422 4668.75" stroke="#2B4CE3" stroke-width="3" stroke-linecap="round"/>
<path d="M22.2422 4699.83L22.2422 4716.41" stroke="#2B4CE3" stroke-width="3" stroke-linecap="round"/>
<rect y="2859" width="43" height="953" fill="#5976FA"/>
<path d="M22.2422 2888.9L22.2422 2905.48" stroke="#2B4CE3" stroke-width="3" stroke-linecap="round"/>
<path d="M22.2422 2936.57L22.2422 2953.14" stroke="#2B4CE3" stroke-width="3" stroke-linecap="round"/>
<path d="M22.2422 2984.23L22.2422 3000.81" stroke="#2B4CE3" stroke-width="3" stroke-linecap="round"/>
<path d="M22.2422 3031.89L22.2422 3048.47" stroke="#2B4CE3" stroke-width="3" stroke-linecap="round"/>
<path d="M22.2422 3079.55L22.2422 3096.13" stroke="#2B4CE3" stroke-width="3" stroke-linecap="round"/>
<path d="M22.2422 3127.22L22.2422 3143.8" stroke="#2B4CE3" stroke-width="3" stroke-linecap="round"/>
<path d="M22.2422 3174.88L22.2422 3191.46" stroke="#2B4CE3" stroke-width="3" stroke-linecap="round"/>
<path d="M22.2422 3222.54L22.2422 3239.12" stroke="#2B4CE3" stroke-width="3" stroke-linecap="round"/>
<path d="M22.2422 3270.2L22.2422 3286.78" stroke="#2B4CE3" stroke-width="3" stroke-linecap="round"/>
<path d="M22.2422 3317.87L22.2422 3334.45" stroke="#2B4CE3" stroke-width="3" stroke-linecap="round"/>
<path d="M22.2422 3365.53L22.2422 3382.11" stroke="#2B4CE3" stroke-width="3" stroke-linecap="round"/>
<path d="M22.2422 3413.19L22.2422 3429.77" stroke="#2B4CE3" stroke-width="3" stroke-linecap="round"/>
<path d="M22.2422 3460.86L22.2422 3477.43" stroke="#2B4CE3" stroke-width="3" stroke-linecap="round"/>
<path d="M22.2422 3508.52L22.2422 3525.1" stroke="#2B4CE3" stroke-width="3" stroke-linecap="round"/>
<path d="M22.2422 3556.18L22.2422 3572.76" stroke="#2B4CE3" stroke-width="3" stroke-linecap="round"/>
<path d="M22.2422 3603.84L22.2422 3620.42" stroke="#2B4CE3" stroke-width="3" stroke-linecap="round"/>
<path d="M22.2422 3651.51L22.2422 3668.09" stroke="#2B4CE3" stroke-width="3" stroke-linecap="round"/>
<path d="M22.2422 3699.17L22.2422 3715.75" stroke="#2B4CE3" stroke-width="3" stroke-linecap="round"/>
<path d="M22.2422 3746.83L22.2422 3763.41" stroke="#2B4CE3" stroke-width="3" stroke-linecap="round"/>
<path d="M22.2422 3794.49L22.2422 3811.07" stroke="#2B4CE3" stroke-width="3" stroke-linecap="round"/>
<rect y="1906" width="43" height="953" fill="#5976FA"/>
<path d="M22.2422 2841.49L22.2422 2858.07" stroke="#2B4CE3" stroke-width="3" stroke-linecap="round"/>
<path d="M22.2422 1935.9L22.2422 1952.48" stroke="#2B4CE3" stroke-width="3" stroke-linecap="round"/>
<path d="M22.2422 1983.57L22.2422 2000.14" stroke="#2B4CE3" stroke-width="3" stroke-linecap="round"/>
<path d="M22.2422 2031.23L22.2422 2047.81" stroke="#2B4CE3" stroke-width="3" stroke-linecap="round"/>
<path d="M22.2422 2078.89L22.2422 2095.47" stroke="#2B4CE3" stroke-width="3" stroke-linecap="round"/>
<path d="M22.2422 2126.55L22.2422 2143.13" stroke="#2B4CE3" stroke-width="3" stroke-linecap="round"/>
<path d="M22.2422 2174.22L22.2422 2190.8" stroke="#2B4CE3" stroke-width="3" stroke-linecap="round"/>
<path d="M22.2422 2221.88L22.2422 2238.46" stroke="#2B4CE3" stroke-width="3" stroke-linecap="round"/>
<path d="M22.2422 2269.54L22.2422 2286.12" stroke="#2B4CE3" stroke-width="3" stroke-linecap="round"/>
<path d="M22.2422 2317.2L22.2422 2333.78" stroke="#2B4CE3" stroke-width="3" stroke-linecap="round"/>
<path d="M22.2422 2364.87L22.2422 2381.45" stroke="#2B4CE3" stroke-width="3" stroke-linecap="round"/>
<path d="M22.2422 2412.53L22.2422 2429.11" stroke="#2B4CE3" stroke-width="3" stroke-linecap="round"/>
<path d="M22.2422 2460.19L22.2422 2476.77" stroke="#2B4CE3" stroke-width="3" stroke-linecap="round"/>
<path d="M22.2422 2507.86L22.2422 2524.43" stroke="#2B4CE3" stroke-width="3" stroke-linecap="round"/>
<path d="M22.2422 2555.52L22.2422 2572.1" stroke="#2B4CE3" stroke-width="3" stroke-linecap="round"/>
<path d="M22.2422 2603.18L22.2422 2619.76" stroke="#2B4CE3" stroke-width="3" stroke-linecap="round"/>
<path d="M22.2422 2650.84L22.2422 2667.42" stroke="#2B4CE3" stroke-width="3" stroke-linecap="round"/>
<path d="M22.2422 2698.51L22.2422 2715.09" stroke="#2B4CE3" stroke-width="3" stroke-linecap="round"/>
<path d="M22.2422 2746.17L22.2422 2762.75" stroke="#2B4CE3" stroke-width="3" stroke-linecap="round"/>
<path d="M22.2422 2793.83L22.2422 2810.41" stroke="#2B4CE3" stroke-width="3" stroke-linecap="round"/>
<rect y="953" width="43" height="953" fill="#5976FA"/>
<path d="M22.2422 982.902L22.2422 999.481" stroke="#2B4CE3" stroke-width="3" stroke-linecap="round"/>
<path d="M22.2422 1030.57L22.2422 1047.14" stroke="#2B4CE3" stroke-width="3" stroke-linecap="round"/>
<path d="M22.2422 1078.23L22.2422 1094.81" stroke="#2B4CE3" stroke-width="3" stroke-linecap="round"/>
<path d="M22.2422 1125.89L22.2422 1142.47" stroke="#2B4CE3" stroke-width="3" stroke-linecap="round"/>
<path d="M22.2422 1173.55L22.2422 1190.13" stroke="#2B4CE3" stroke-width="3" stroke-linecap="round"/>
<path d="M22.2422 1221.22L22.2422 1237.8" stroke="#2B4CE3" stroke-width="3" stroke-linecap="round"/>
<path d="M22.2422 1268.88L22.2422 1285.46" stroke="#2B4CE3" stroke-width="3" stroke-linecap="round"/>
<path d="M22.2422 1316.54L22.2422 1333.12" stroke="#2B4CE3" stroke-width="3" stroke-linecap="round"/>
<path d="M22.2422 1364.2L22.2422 1380.78" stroke="#2B4CE3" stroke-width="3" stroke-linecap="round"/>
<path d="M22.2422 1411.87L22.2422 1428.45" stroke="#2B4CE3" stroke-width="3" stroke-linecap="round"/>
<path d="M22.2422 1459.53L22.2422 1476.11" stroke="#2B4CE3" stroke-width="3" stroke-linecap="round"/>
<path d="M22.2422 1507.19L22.2422 1523.77" stroke="#2B4CE3" stroke-width="3" stroke-linecap="round"/>
<path d="M22.2422 1554.86L22.2422 1571.43" stroke="#2B4CE3" stroke-width="3" stroke-linecap="round"/>
<path d="M22.2422 1602.52L22.2422 1619.1" stroke="#2B4CE3" stroke-width="3" stroke-linecap="round"/>
<path d="M22.2422 1650.18L22.2422 1666.76" stroke="#2B4CE3" stroke-width="3" stroke-linecap="round"/>
<path d="M22.2422 1697.84L22.2422 1714.42" stroke="#2B4CE3" stroke-width="3" stroke-linecap="round"/>
<path d="M22.2422 1745.51L22.2422 1762.09" stroke="#2B4CE3" stroke-width="3" stroke-linecap="round"/>
<path d="M22.2422 1793.17L22.2422 1809.75" stroke="#2B4CE3" stroke-width="3" stroke-linecap="round"/>
<path d="M22.2422 1840.83L22.2422 1857.41" stroke="#2B4CE3" stroke-width="3" stroke-linecap="round"/>
<path d="M22.2422 1888.49L22.2422 1905.07" stroke="#2B4CE3" stroke-width="3" stroke-linecap="round"/>
<rect width="43" height="953" fill="#5976FA"/>
<path d="M22.2422 935.492L22.2422 952.071" stroke="#2B4CE3" stroke-width="3" stroke-linecap="round"/>
<path d="M22.2422 29.9023L22.2422 46.4807" stroke="#2B4CE3" stroke-width="3" stroke-linecap="round"/>
<path d="M22.2422 77.5664L22.2422 94.1447" stroke="#2B4CE3" stroke-width="3" stroke-linecap="round"/>
<path d="M22.2422 125.23L22.2422 141.809" stroke="#2B4CE3" stroke-width="3" stroke-linecap="round"/>
<path d="M22.2422 172.891L22.2422 189.469" stroke="#2B4CE3" stroke-width="3" stroke-linecap="round"/>
<path d="M22.2422 220.555L22.2422 237.133" stroke="#2B4CE3" stroke-width="3" stroke-linecap="round"/>
<path d="M22.2422 268.219L22.2422 284.797" stroke="#2B4CE3" stroke-width="3" stroke-linecap="round"/>
<path d="M22.2422 315.879L22.2422 332.457" stroke="#2B4CE3" stroke-width="3" stroke-linecap="round"/>
<path d="M22.2422 363.543L22.2422 380.121" stroke="#2B4CE3" stroke-width="3" stroke-linecap="round"/>
<path d="M22.2422 411.203L22.2422 427.781" stroke="#2B4CE3" stroke-width="3" stroke-linecap="round"/>
<path d="M22.2422 458.867L22.2422 475.446" stroke="#2B4CE3" stroke-width="3" stroke-linecap="round"/>
<path d="M22.2422 506.531L22.2422 523.11" stroke="#2B4CE3" stroke-width="3" stroke-linecap="round"/>
<path d="M22.2422 554.191L22.2422 570.77" stroke="#2B4CE3" stroke-width="3" stroke-linecap="round"/>
<path d="M22.2422 601.855L22.2422 618.434" stroke="#2B4CE3" stroke-width="3" stroke-linecap="round"/>
<path d="M22.2422 649.52L22.2422 666.098" stroke="#2B4CE3" stroke-width="3" stroke-linecap="round"/>
<path d="M22.2422 697.18L22.2422 713.758" stroke="#2B4CE3" stroke-width="3" stroke-linecap="round"/>
<path d="M22.2422 744.844L22.2422 761.422" stroke="#2B4CE3" stroke-width="3" stroke-linecap="round"/>
<path d="M22.2422 792.508L22.2422 809.086" stroke="#2B4CE3" stroke-width="3" stroke-linecap="round"/>
<path d="M22.2422 840.168L22.2422 856.746" stroke="#2B4CE3" stroke-width="3" stroke-linecap="round"/>
<path d="M22.2422 887.832L22.2422 904.41" stroke="#2B4CE3" stroke-width="3" stroke-linecap="round"/>
</svg>
