<svg width="83" height="1841" viewBox="0 0 83 1841" fill="none" xmlns="http://www.w3.org/2000/svg">
<rect width="83" height="1841" fill="#5976FA"/>
<path d="M41 41L41 73" stroke="#2B4CE3" stroke-width="6" stroke-linecap="round"/>
<path d="M41 133L41 165" stroke="#2B4CE3" stroke-width="6" stroke-linecap="round"/>
<path d="M41 225L41 257" stroke="#2B4CE3" stroke-width="6" stroke-linecap="round"/>
<path d="M41 317L41 349" stroke="#2B4CE3" stroke-width="6" stroke-linecap="round"/>
<path d="M41 409L41 441" stroke="#2B4CE3" stroke-width="6" stroke-linecap="round"/>
<path d="M41 501L41 533" stroke="#2B4CE3" stroke-width="6" stroke-linecap="round"/>
<path d="M41 593L41 625" stroke="#2B4CE3" stroke-width="6" stroke-linecap="round"/>
<path d="M41 685L41 717" stroke="#2B4CE3" stroke-width="6" stroke-linecap="round"/>
<path d="M41 777L41 809" stroke="#2B4CE3" stroke-width="6" stroke-linecap="round"/>
<path d="M41 869L41 901" stroke="#2B4CE3" stroke-width="6" stroke-linecap="round"/>
<path d="M41 961L41 993" stroke="#2B4CE3" stroke-width="6" stroke-linecap="round"/>
<path d="M41 1053L41 1085" stroke="#2B4CE3" stroke-width="6" stroke-linecap="round"/>
<path d="M41 1145L41 1177" stroke="#2B4CE3" stroke-width="6" stroke-linecap="round"/>
<path d="M41 1237L41 1269" stroke="#2B4CE3" stroke-width="6" stroke-linecap="round"/>
<path d="M41 1329L41 1361" stroke="#2B4CE3" stroke-width="6" stroke-linecap="round"/>
<path d="M41 1421L41 1453" stroke="#2B4CE3" stroke-width="6" stroke-linecap="round"/>
<path d="M41 1513L41 1545" stroke="#2B4CE3" stroke-width="6" stroke-linecap="round"/>
<path d="M41 1605L41 1637" stroke="#2B4CE3" stroke-width="6" stroke-linecap="round"/>
<path d="M41 1697L41 1729" stroke="#2B4CE3" stroke-width="6" stroke-linecap="round"/>
<path d="M41 1789L41 1821" stroke="#2B4CE3" stroke-width="6" stroke-linecap="round"/>
</svg>
