<svg width="80" height="80" viewBox="0 0 80 80" fill="none" xmlns="http://www.w3.org/2000/svg">
<circle cx="40" cy="40" r="40" fill="#2F54F9"/>
<g clip-path="url(#clip0_4058_11181)">
<path fill-rule="evenodd" clip-rule="evenodd" d="M59.0921 26.2221C59.6545 26.7847 59.9704 27.5476 59.9704 28.3431C59.9704 29.1386 59.6545 29.9015 59.0921 30.4641L36.6061 52.9501C36.3089 53.2474 35.9561 53.4831 35.5678 53.644C35.1795 53.8049 34.7633 53.8876 34.3431 53.8876C33.9228 53.8876 33.5066 53.8049 33.1183 53.644C32.73 53.4831 32.3772 53.2474 32.0801 52.9501L20.9081 41.7801C20.6215 41.5034 20.393 41.1724 20.2357 40.8063C20.0785 40.4403 19.9958 40.0467 19.9923 39.6483C19.9888 39.25 20.0647 38.855 20.2156 38.4863C20.3664 38.1176 20.5892 37.7826 20.8709 37.5009C21.1525 37.2193 21.4875 36.9965 21.8562 36.8457C22.2249 36.6948 22.6199 36.6189 23.0183 36.6224C23.4166 36.6258 23.8103 36.7086 24.1763 36.8658C24.5423 37.0231 24.8733 37.2516 25.1501 37.5381L34.3421 46.7301L54.8481 26.2221C55.1267 25.9434 55.4575 25.7222 55.8216 25.5713C56.1857 25.4204 56.5759 25.3428 56.9701 25.3428C57.3642 25.3428 57.7544 25.4204 58.1185 25.5713C58.4827 25.7222 58.8134 25.9434 59.0921 26.2221Z" fill="white"/>
</g>
<defs>
<clipPath id="clip0_4058_11181">
<rect width="48" height="48" fill="white" transform="translate(16 16)"/>
</clipPath>
</defs>
</svg>
