<svg width="179" height="235" viewBox="0 0 179 235" fill="none" xmlns="http://www.w3.org/2000/svg">
<path d="M89.5989 234.698L7.66653 125.32L171.531 125.32L89.5989 234.698Z" fill="#142369"/>
<path fill-rule="evenodd" clip-rule="evenodd" d="M171.544 125.32C176.34 114.352 179 102.237 179 89.5C179 40.0705 138.929 0 89.5 0C40.0705 0 0 40.0705 0 89.5C0 102.237 2.66046 114.352 7.45598 125.32H171.544Z" fill="#142369"/>
<path d="M90.1007 80.4267C90.1014 80.426 90.1009 80.4248 90.0999 80.4248H76.3027C70.5944 80.4248 64.89 82.6017 60.5348 86.9517C56.1795 91.3018 54 96.9994 54 102.701V102.724C54 108.425 56.1795 114.123 60.5348 118.473C64.89 122.823 70.5944 124.996 76.3027 125H76.322C82.0303 125 87.7347 122.823 92.0899 118.473C96.4452 114.123 98.6208 108.425 98.6247 102.724V88.9444C98.6247 84.2421 94.8091 80.4301 90.1015 80.4286C90.1005 80.4286 90.1 80.4274 90.1007 80.4267ZM76.3143 111.293C71.567 111.293 67.723 107.45 67.723 102.712C67.723 97.9746 71.5708 94.1314 76.3143 94.1314C81.0577 94.1314 84.9056 97.9746 84.9056 102.712C84.9056 107.45 81.0577 111.293 76.3143 111.293Z" fill="white"/>
<path d="M65.5635 53.0019C65.5635 53.0009 65.5627 53 65.5616 53C59.2046 53.001 54.0547 58.1454 54.0547 64.4913C54.0547 70.8378 59.2056 75.9825 65.5597 75.9825L93.2094 75.9595C95.8272 75.9595 98.2873 76.9769 100.136 78.8237C101.985 80.6704 103.004 83.1276 103.004 85.7422L102.988 113.501C102.988 119.847 108.139 124.996 114.493 124.996C120.848 124.996 125.999 119.851 125.999 113.501L125.987 85.7422C125.987 76.9961 122.577 68.7722 116.385 62.5908C110.2 56.4094 101.966 53.0038 93.2094 53.0038H65.5655C65.5644 53.0038 65.5635 53.003 65.5635 53.0019Z" fill="white"/>
</svg>
