<svg width="1024" height="1024" viewBox="0 0 1024 1024" fill="none" xmlns="http://www.w3.org/2000/svg">
<rect width="1024" height="1024" fill="#2F54F9"/>
<path d="M511.973 440.102H394.832C346.377 440.102 297.955 458.581 260.985 495.507C224.016 532.433 205.515 580.798 205.515 629.196V629.392C205.515 677.789 224.016 726.155 260.985 763.081C297.955 800.006 346.377 818.453 394.832 818.486H394.996C443.451 818.486 491.873 800.006 528.843 763.081C565.812 726.155 584.281 677.789 584.313 629.392V512.422C584.313 472.498 551.912 440.135 511.941 440.135L511.973 440.102ZM394.93 702.135C354.633 702.135 322.003 669.511 322.003 629.294C322.003 589.076 354.665 556.453 394.93 556.453C435.195 556.453 467.858 589.076 467.858 629.294C467.858 669.511 435.195 702.135 394.93 702.135Z" fill="white"/>
<path d="M303.693 207.302C249.724 207.302 206 250.974 206 304.847C206 358.72 249.724 402.393 303.661 402.393L538.366 402.197C560.587 402.197 581.47 410.834 597.165 426.51C612.86 442.186 621.507 463.045 621.507 485.239L621.376 720.874C621.376 774.747 665.1 818.452 719.037 818.452C772.974 818.452 816.698 774.779 816.698 720.874L816.6 485.239C816.6 410.997 787.657 341.186 735.091 288.715C682.59 236.243 612.697 207.334 538.366 207.334H303.693V207.302Z" fill="white"/>
</svg>
