<svg width="72" height="72" viewBox="0 0 72 72" fill="none" xmlns="http://www.w3.org/2000/svg">
<path d="M36.1007 27.4267C36.1014 27.426 36.1009 27.4248 36.0999 27.4248H22.3027C16.5944 27.4248 10.89 29.6017 6.53476 33.9517C2.17953 38.3018 0 43.9994 0 49.7009V49.7239C0 55.4254 2.17953 61.123 6.53476 65.473C10.89 69.8231 16.5944 71.9961 22.3027 72H22.322C28.0303 72 33.7347 69.8231 38.0899 65.473C42.4452 61.123 44.6208 55.4254 44.6247 49.7239V35.9444C44.6247 31.2421 40.8091 27.4301 36.1015 27.4286C36.1005 27.4286 36.1 27.4274 36.1007 27.4267ZM22.3143 58.2934C17.567 58.2934 13.723 54.4502 13.723 49.7124C13.723 44.9746 17.5708 41.1314 22.3143 41.1314C27.0577 41.1314 30.9056 44.9746 30.9056 49.7124C30.9056 54.4502 27.0577 58.2934 22.3143 58.2934Z" fill="white"/>
<path d="M11.5635 0.00191969C11.5635 0.000859474 11.5627 -1.5528e-08 11.5616 1.58173e-07C5.20457 0.00104167 0.0546875 5.14541 0.0546875 11.4913C0.0546875 17.8378 5.20561 22.9825 11.5597 22.9825L39.2094 22.9595C41.8272 22.9595 44.2873 23.9769 46.1362 25.8237C47.9852 27.6704 49.0038 30.1276 49.0038 32.7422L48.9885 60.5009C48.9885 66.8474 54.1394 71.996 60.4935 71.996C66.8476 71.996 71.9985 66.8513 71.9985 60.5009L71.987 32.7422C71.987 23.9961 68.5774 15.7722 62.3847 9.59077C56.1998 3.40937 47.966 0.00383938 39.2094 0.00383938H11.5655C11.5644 0.00383938 11.5635 0.0029799 11.5635 0.00191969Z" fill="white"/>
</svg>
