<svg width="171" height="171" viewBox="0 0 171 171" fill="none" xmlns="http://www.w3.org/2000/svg">
<rect width="171" height="171" fill="#CFCFD1"/>
<g clip-path="url(#clip0_2935_5808)">
<path d="M86.111 76.4717H70.779C64.4369 76.4717 58.0991 78.8905 53.2603 83.7239C48.4215 88.5572 46 94.8879 46 101.223V101.249C46 107.584 48.4215 113.914 53.2603 118.748C58.0991 123.581 64.4369 125.995 70.779 126H70.8003C77.1424 126 83.4802 123.581 88.319 118.748C93.1578 113.914 95.5751 107.584 95.5793 101.249V85.9379C95.5793 80.7121 91.3385 76.4759 86.1068 76.4759L86.111 76.4717ZM70.7918 110.77C65.5174 110.77 61.2466 106.5 61.2466 101.236C61.2466 95.9715 65.5217 91.7012 70.7918 91.7012C76.0619 91.7012 80.337 95.9715 80.337 101.236C80.337 106.5 76.0619 110.77 70.7918 110.77Z" fill="#F0F0F0"/>
<path d="M58.8509 46C51.7871 46 46.0642 51.7164 46.0642 58.7681C46.0642 65.8198 51.7871 71.5362 58.8466 71.5362L89.5663 71.5106C92.4747 71.5106 95.208 72.6411 97.2622 74.693C99.3164 76.745 100.448 79.4752 100.448 82.3803L100.431 113.223C100.431 120.275 106.154 125.996 113.214 125.996C120.273 125.996 125.996 120.279 125.996 113.223L125.983 82.3803C125.983 72.6624 122.195 63.5247 115.315 56.6564C108.443 49.7882 99.2951 46.0043 89.5663 46.0043H58.8509V46Z" fill="#F0F0F0"/>
</g>
<defs>
<clipPath id="clip0_2935_5808">
<rect width="80" height="80" fill="white" transform="translate(46 46)"/>
</clipPath>
</defs>
</svg>
